HIERARCHY
ROOT RootJoint
{
    OFFSET   0.000000   0.000000   0.000000
    CHANNELS 6 Xposition Yposition Zposition Xrotation Yrotation Zrotation
    JOINT pelvis_lowerback
    {
        OFFSET   0.000000   0.093605   0.000000
        CHANNELS 3 Xrotation Yrotation Zrotation
        JOINT lowerback_torso
        {
            OFFSET   0.000000   0.100000   0.000000
            CHANNELS 3 Xrotation Yrotation Zrotation
            JOINT torso_head
            {
                OFFSET   0.000000   0.282350   0.000000
                CHANNELS 3 Xrotation Yrotation Zrotation
                End Site
                {
                    OFFSET   0.000000   0.192650   0.000000
                }
            }
            JOINT rTorso_Clavicle
            {
                OFFSET  -0.001000   0.157500   0.000000
                CHANNELS 3 Xrotation Yrotation Zrotation
                JOINT rShoulder
                {
                    OFFSET  -0.117647   0.000000   0.000000
                    CHANNELS 3 Xrotation Yrotation Zrotation
                    JOINT rElbow
                    {
                        OFFSET  -0.245000   0.000000   0.000000
                        CHANNELS 3 Xrotation Yrotation Zrotation
                        JOINT rWrist
                        {
                            OFFSET  -0.240000   0.000000   0.000000
                            CHANNELS 3 Xrotation Yrotation Zrotation
                            End Site
                            {
                                OFFSET  -0.116353  -0.002500   0.000000
                            }
                        }
                    }
                }
            }
            JOINT lTorso_Clavicle
            {
                OFFSET   0.001000   0.157500   0.000000
                CHANNELS 3 Xrotation Yrotation Zrotation
                JOINT lShoulder
                {
                    OFFSET   0.117647   0.000000   0.000000
                    CHANNELS 3 Xrotation Yrotation Zrotation
                    JOINT lElbow
                    {
                        OFFSET   0.245000   0.000000   0.000000
                        CHANNELS 3 Xrotation Yrotation Zrotation
                        JOINT lWrist
                        {
                            OFFSET   0.240000   0.000000   0.000000
                            CHANNELS 3 Xrotation Yrotation Zrotation
                            End Site
                            {
                                OFFSET   0.116353  -0.002500   0.000000
                            }
                        }
                    }
                }
            }
        }
    }
    JOINT rHip
    {
        OFFSET  -0.100000  -0.051395   0.000000
        CHANNELS 3 Xrotation Yrotation Zrotation
        JOINT rKnee
        {
            OFFSET   0.000000  -0.410000   0.000000
            CHANNELS 3 Xrotation Yrotation Zrotation
            JOINT rAnkle
            {
                OFFSET   0.000000  -0.390000   0.000000
                CHANNELS 3 Xrotation Yrotation Zrotation
                JOINT rToeJoint
                {
                    OFFSET   0.000000  -0.050000   0.130000
                    CHANNELS 3 Xrotation Yrotation Zrotation
                    End Site
                    {
                        OFFSET  -0.010000   0.002000   0.060000
                    }
                }
            }
        }
    }
    JOINT lHip
    {
        OFFSET   0.100000  -0.051395   0.000000
        CHANNELS 3 Xrotation Yrotation Zrotation
        JOINT lKnee
        {
            OFFSET   0.000000  -0.410000   0.000000
            CHANNELS 3 Xrotation Yrotation Zrotation
            JOINT lAnkle
            {
                OFFSET   0.000000  -0.390000   0.000000
                CHANNELS 3 Xrotation Yrotation Zrotation
                JOINT lToeJoint
                {
                    OFFSET   0.000000  -0.050000   0.130000
                    CHANNELS 3 Xrotation Yrotation Zrotation
                    End Site
                    {
                        OFFSET   0.010000   0.002000   0.060000
                    }
                }
            }
        }
    }
}
MOTION
Frames: 12
Frame Time:   0.008333
 -2.376719   0.925631   3.975860   0.000000   0.000000   0.000000   0.000000   0.000000   0.000000   0.000000   0.000000   0.000000   0.000000   0.000000   0.000000   0.000000   0.000000   0.000000   0.000000   0.000000   0.000000   0.000000   0.000000   0.000000   0.000000   0.000000   0.000000   0.000000   0.000000   0.000000   0.000000   0.000000   0.000000   0.000000   0.000000   0.000000   0.000000   0.000000   0.000000   0.000000   0.000000   0.000000   0.000000   0.000000   0.000000   0.000000   0.000000   0.000000   0.000000   0.000000   0.000000   0.000000   0.000000   0.000000   0.000000   0.000000   0.000000   0.000000   0.000000   0.000000   0.000000   0.000000   0.000000
 -2.376308   0.924069   3.975802  -0.547654   0.016100   0.062227   0.873641   0.081239  -0.012976   0.111476  -0.016921   0.039477   0.062899   0.076013  -0.070642  -0.254336  -0.791231  -1.004083  -0.685349  -0.412258   0.466207  -0.008130   2.017045   0.009002  -0.024127   0.110858   0.556248  -0.222931   0.634928   1.027853  -0.052988   0.334797  -0.708503  -0.008012  -2.254370   0.002945   0.080033   0.017418  -0.658330   0.133062   0.171387  -0.301653   1.291380   0.002730   0.002074  -1.327968  -0.177182  -0.306044  -0.033134  -0.000157  -0.000003   0.254258  -0.246003   0.044272   1.290827  -0.001234  -0.002570  -1.638394   0.248182   0.494269  -0.045718   0.000238  -0.000008
 -2.375783   0.924012   3.975817  -1.245905   0.065099   0.128113   1.852723   0.143001  -0.001792   0.404350  -0.056222   0.093387   0.213315   0.152824  -0.133008  -0.515830  -1.728449  -2.054642  -1.324394  -0.916741   0.796312  -0.017149   3.910277   0.012750  -0.071624   0.624814   0.955545  -0.444288   1.385837   2.077781  -0.094064   0.725238  -1.290128  -0.017323  -4.389715   0.007789   0.154110  -0.480131  -1.216427   0.238629   0.222292  -0.398098   2.666032   0.002669   0.002754  -2.380822  -0.437819  -0.426096  -0.036627  -0.000130   0.000002   0.469835  -0.400456  -0.083844   2.491223  -0.000442  -0.003141  -3.068756   0.543063   0.832918  -0.062340   0.000230  -0.000036
 -2.375134   0.923845   3.976106  -1.965425   0.124134   0.197068   2.788546   0.187203   0.032661   0.745757  -0.110522   0.156837   0.395069   0.224980  -0.188121  -0.782047  -2.714020  -3.226333  -1.916541  -1.474053   0.988528  -0.027370   5.649073   0.014848  -0.114103   1.063109   1.232607  -0.666798   2.177670   3.235795  -0.125166   1.157768  -1.731816  -0.028587  -6.362165   0.010986   0.227019  -0.956724  -1.670383   0.375991   0.296779  -0.493009   4.063364   0.002659   0.003719  -3.449846  -0.632093  -0.617348  -0.068101  -0.000164   0.000020   0.701294  -0.562673  -0.227932   3.731965   0.000310  -0.003647  -4.481010   0.775386   1.209589  -0.127617   0.000352  -0.000110
 -2.374404   0.923555   3.976634  -2.660097   0.166027   0.269340   3.652801   0.224111   0.078991   1.074924  -0.169131   0.228718   0.580010   0.292391  -0.237184  -1.056101  -3.703016  -4.445265  -2.468952  -2.051154   1.073438  -0.036648   7.249937   0.016387  -0.150227   1.374309   1.340051  -0.894384   2.977335   4.440606  -0.150991   1.611752  -2.056068  -0.039377  -8.184090   0.012185   0.300945  -1.326021  -1.956216   0.522263   0.358662  -0.595544   5.410264   0.002724   0.004076  -4.449693  -0.804948  -0.804127  -0.100823  -0.000195   0.000037   0.940084  -0.710644  -0.356278   4.927653   0.000650  -0.004053  -5.802841   0.976214   1.576607  -0.190852   0.000449  -0.000149
 -2.373611   0.923166   3.977354  -3.319406   0.177913   0.343566   4.442480   0.258063   0.133672   1.375090  -0.226630   0.306564   0.758189   0.355292  -0.281826  -1.337667  -4.668042  -5.671147  -2.986254  -2.625734   1.084836  -0.044021   8.729218   0.017606  -0.180984   1.586563   1.315139  -1.127632   3.762946   5.655716  -0.173978   2.070476  -2.294146  -0.048485  -9.870486   0.011808   0.376095  -1.599502  -2.103561   0.668717   0.404201  -0.706461   6.693455   0.002801   0.003775  -5.380796  -0.961132  -0.982642  -0.129828  -0.000211   0.000056   1.183056  -0.843811  -0.451023   6.061915   0.000501  -0.004446  -7.040388   1.151142   1.930743  -0.247632   0.000520  -0.000154
 -2.372765   0.922693   3.978226  -3.942119   0.152029   0.418396   5.161346   0.291668   0.194803   1.643321  -0.280046   0.388595   0.926112   0.413977  -0.322918  -1.624778  -5.592314  -6.878195  -3.471737  -3.183449   1.047127  -0.049222  10.100558   0.018526  -0.207768   1.732726   1.199285  -1.365513   4.520317   6.856072  -0.195487   2.522080  -2.469958  -0.055474 -11.434829   0.010361   0.451690  -1.802424  -2.150852   0.810588   0.434664  -0.826459   7.912771   0.002850   0.002930  -6.245884  -1.102472  -1.152697  -0.155816  -0.000219   0.000076   1.430238  -0.966271  -0.495313   7.130900  -0.000159  -0.004877  -8.201125   1.301995   2.273862  -0.298912   0.000580  -0.000132
 -2.371890   0.921865   3.978892  -4.360339   0.062089   0.488264   5.672306   0.341992   0.239686   1.850200  -0.301173   0.512555   1.089420   0.469351  -0.372675  -1.773745  -6.642198  -7.937043  -3.675781  -3.668648   1.344256  -0.049337  11.891746   0.014375  -0.185001   1.665629   0.427613  -1.477774   5.382409   7.788103  -0.072994   2.908324  -2.906181  -0.056673 -13.468057   0.013486   0.511155  -1.736151  -1.454774   0.510860   0.578514  -1.125507   9.597550   0.005882   0.002402  -7.221793  -1.302992  -1.373473  -0.265208  -0.000612   0.000212   1.349009  -1.115586  -0.362453   8.695294  -0.003580  -0.006714  -9.197394   1.334580   2.620899  -0.326857   0.000599  -0.000052
 -2.371073   0.920789   3.979708  -4.778566  -0.091213   0.542432   6.135953   0.401616   0.289045   2.033998  -0.308984   0.637687   1.247021   0.521920  -0.415008  -1.920851  -7.614970  -8.778617  -3.855428  -4.113616   1.733426  -0.044192  13.581042   0.011404  -0.153708   1.732637  -0.210712  -1.587353   6.187317   8.497085   0.051351   3.257471  -3.434542  -0.051508 -15.385459   0.014649   0.568727  -1.816561  -0.872714   0.188519   0.675939  -1.459198  11.257260   0.008674   0.000033  -8.098243  -1.515250  -1.537834  -0.362369  -0.000873   0.000413   1.355673  -1.258645  -0.064286  10.238342  -0.008520  -0.008362 -10.119313   1.360763   2.946389  -0.324632   0.000466  -0.000047
 -2.370318   0.919560   3.980690  -5.183062  -0.317850   0.607877   6.544807   0.470649   0.320166   2.187965  -0.304058   0.748489   1.393629   0.571255  -0.453918  -2.065368  -8.506688  -9.449117  -4.014905  -4.523539   2.181874  -0.036659  15.162005   0.009558  -0.123251   1.839109  -0.671679  -1.693473   6.933297   9.040672   0.175925   3.578344  -4.015845  -0.043413 -17.178280   0.014180   0.621991  -1.935638  -0.465744  -0.142162   0.711530  -1.741592  12.887934   0.009442  -0.003762  -8.876184  -1.738894  -1.645912  -0.450912  -0.000953   0.000667   1.442140  -1.392228   0.342825  11.707650  -0.014002  -0.009750 -10.977713   1.382364   3.251844  -0.314348   0.000301  -0.000069
 -2.369559   0.918286   3.981818  -5.568752  -0.615333   0.708524   6.903738   0.544891   0.325848   2.311280  -0.290077   0.833824   1.528098   0.617327  -0.492255  -2.205512  -9.324972  -9.988608  -4.156099  -4.901857   2.664513  -0.028436  16.640258   0.008499  -0.093914   1.959624  -0.989688  -1.794581   7.625018   9.453173   0.300667   3.873759  -4.628849  -0.034452 -18.853111   0.012626   0.671582  -2.064323  -0.207413  -0.479188   0.698289  -1.943661  14.476427   0.007837  -0.008058  -9.572972  -1.962011  -1.718959  -0.528806  -0.000880   0.000909   1.590742  -1.516112   0.807326  13.097961  -0.019386  -0.010847 -11.777550   1.399579   3.538161  -0.299070   0.000124  -0.000110
 -2.368639   0.916972   3.983064  -5.931339  -0.888925   0.850021   7.215373   0.586467   0.331712   2.405244  -0.297775   0.898062   1.650700   0.659224  -0.530237  -2.342141 -10.088855 -10.440078  -4.281404  -5.259244   3.154938  -0.020518  18.018813   0.007948  -0.065924   2.073578  -1.207771  -1.888327   8.256457   9.760287   0.425142   4.138139  -5.260170  -0.026017 -20.420275   0.010436   0.717593  -2.206766  -0.075360  -0.796653   0.721607  -2.192130  15.997442   0.006575  -0.010515 -10.215151  -2.140861  -1.836425  -0.599453  -0.000840   0.001005   1.766940  -1.635685   1.300930  14.412525  -0.024044  -0.010726 -12.523456   1.412077   3.805770  -0.283097  -0.000032  -0.000141
